<?xml version="1.0" encoding="UTF-8" standalone="no"?>
<!DOCTYPE svg PUBLIC "-//W3C//DTD SVG 1.1//EN" "http://www.w3.org/Graphics/SVG/1.1/DTD/svg11.dtd">
<!-- Generated by Microsoft Visio, SVG Export cmk-webhook.svg Page-1 -->
<svg xmlns="http://www.w3.org/2000/svg" xmlns:xlink="http://www.w3.org/1999/xlink" xmlns:ev="http://www.w3.org/2001/xml-events"
		xmlns:v="http://schemas.microsoft.com/visio/2003/SVGExtensions/" width="8.75405in" height="4.71611in"
		viewBox="0 0 630.291 339.56" xml:space="preserve" color-interpolation-filters="sRGB" class="st17">
	<v:documentProperties v:langID="1033" v:metric="true" v:viewMarkup="false"/>

	<style type="text/css">
	<![CDATA[
		.st1 {fill:#ffffff;stroke:none;stroke-linecap:round;stroke-linejoin:round;stroke-width:0.75}
		.st2 {fill:#cdcdcd;stroke:none;stroke-linecap:round;stroke-linejoin:round;stroke-width:0.75}
		.st3 {fill:none}
		.st4 {stroke:#000000;stroke-linecap:round;stroke-linejoin:round;stroke-width:0.959535}
		.st5 {fill:#000000;font-family:Intel Clear;font-size:1.00001em}
		.st6 {font-size:1em}
		.st7 {fill:#ffffff;stroke:#000000;stroke-linecap:round;stroke-linejoin:round;stroke-width:1}
		.st8 {fill:#000000;font-family:Intel Clear;font-size:0.75em}
		.st9 {font-size:0.666656em}
		.st10 {fill:#7f7f7f;stroke:#000000;stroke-linecap:round;stroke-linejoin:round;stroke-width:0.24}
		.st11 {marker-end:url(#mrkr13-99);stroke:#000000;stroke-linecap:round;stroke-linejoin:round;stroke-width:0.75}
		.st12 {fill:#000000;fill-opacity:1;stroke:#000000;stroke-opacity:1;stroke-width:0.22935779816514}
		.st13 {marker-start:url(#mrkr13-115);stroke:#000000;stroke-linecap:round;stroke-linejoin:round;stroke-width:0.75}
		.st14 {fill:#fff2cc;stroke:#000000;stroke-linecap:round;stroke-linejoin:round;stroke-width:1}
		.st15 {fill:#000000;font-family:Intel Clear;font-size:0.75em;font-weight:bold}
		.st16 {font-size:1em;font-weight:normal}
		.st17 {fill:none;fill-rule:evenodd;font-size:12px;overflow:visible;stroke-linecap:square;stroke-miterlimit:3}
	]]>
	</style>

	<defs id="Markers">
		<g id="lend13">
			<path d="M 3 1 L 0 0 L 3 -1 L 3 1 " style="stroke:none"/>
		</g>
		<marker id="mrkr13-99" class="st12" v:arrowType="13" v:arrowSize="2" v:setback="13.08" refX="-13.08" orient="auto"
				markerUnits="strokeWidth" overflow="visible">
			<use xlink:href="#lend13" transform="scale(-4.36,-4.36) "/>
		</marker>
		<marker id="mrkr13-115" class="st12" v:arrowType="13" v:arrowSize="2" v:setback="12.6" refX="12.6" orient="auto"
				markerUnits="strokeWidth" overflow="visible">
			<use xlink:href="#lend13" transform="scale(4.36) "/>
		</marker>
	</defs>
	<g v:mID="0" v:index="1" v:groupContext="foregroundPage">
		<title>Page-1</title>
		<v:pageProperties v:drawingScale="0.0393701" v:pageScale="0.0393701" v:drawingUnits="24" v:shadowOffsetX="8.50394"
				v:shadowOffsetY="-8.50394"/>
		<v:layer v:name="Connector" v:index="0"/>
		<g id="group203-1" transform="translate(25.2573,-266.512)" v:mID="203" v:groupContext="group">
			<title>Sheet.203</title>
			<desc>Original pod spec</desc>
			<g id="shape198-2" v:mID="198" v:groupContext="shape" transform="translate(4.38618,5.68434E-014)">
				<title>Sheet.198</title>
				<path d="M0 339.56 C2.42 339.56 4.39 337.6 4.39 335.18 L0 335.18 C1.22 335.18 2.2 334.21 2.2 332.99 C2.2 331.79 1.22
							 330.8 0 330.8 L4.39 330.8 L4.39 271.37 C4.39 268.96 6.35 266.99 8.78 266.99 L72.39 266.99 C74.81 266.99
							 76.78 268.96 76.78 271.37 C76.78 273.79 74.81 275.75 72.39 275.75 L68 275.75 L68 335.18 C68 337.6 66.04
							 339.56 63.62 339.56 L0 339.56 ZM13.16 271.37 C13.16 273.79 11.2 275.75 8.78 275.75 C7.56 275.75 6.59
							 274.77 6.59 273.56 C6.59 272.35 7.56 271.37 8.78 271.37 L13.16 271.37 Z" class="st1"/>
			</g>
			<g id="shape199-4" v:mID="199" v:groupContext="shape">
				<title>Sheet.199</title>
				<path d="M17.55 271.37 C17.55 273.79 15.58 275.75 13.16 275.75 C11.95 275.75 10.97 274.77 10.97 273.56 C10.97 272.35
							 11.95 271.37 13.16 271.37 L17.55 271.37 ZM8.78 335.18 C8.78 337.6 6.81 339.56 4.39 339.56 C1.97 339.56
							 -0 337.6 0 335.18 C0 332.77 1.97 330.8 4.39 330.8 C5.6 330.8 6.59 331.79 6.59 332.99 C6.59 334.21 5.6
							 335.18 4.39 335.18 L8.78 335.18 Z" class="st2"/>
			</g>
			<g id="shape200-6" v:mID="200" v:groupContext="shape">
				<title>Sheet.200</title>
				<path d="M8.78 330.8 L8.78 271.37 C8.78 268.96 10.74 266.99 13.16 266.99 L76.78 266.99 C79.2 266.99 81.16 268.96
							 81.16 271.37 C81.16 273.79 79.2 275.75 76.78 275.75 L72.39 275.75 L72.39 335.18 C72.39 337.6 70.43 339.56
							 68 339.56 L4.39 339.56 C1.97 339.56 0 337.6 0 335.18 C0 332.77 1.97 330.8 4.39 330.8 L8.78 330.8 Z"
						class="st3"/>
				<path d="M8.78 330.8 L8.78 271.37 C8.78 268.96 10.74 266.99 13.16 266.99 L76.78 266.99 C79.2 266.99 81.16 268.96
							 81.16 271.37 C81.16 273.79 79.2 275.75 76.78 275.75 L72.39 275.75 L72.39 335.18 C72.39 337.6 70.43 339.56
							 68 339.56 L4.39 339.56 C1.97 339.56 0 337.6 0 335.18 C0 332.77 1.97 330.8 4.39 330.8 L8.78 330.8"
						class="st4"/>
				<path d="M13.16 266.99 C15.58 266.99 17.55 268.96 17.55 271.37 C17.55 273.79 15.58 275.75 13.16 275.75 C11.95 275.75
							 10.97 274.77 10.97 273.56 C10.97 272.35 11.95 271.37 13.16 271.37 L17.55 271.37" class="st4"/>
				<path d="M72.39 275.75 L13.16 275.75" class="st4"/>
				<path d="M4.39 330.8 C5.6 330.8 6.59 331.79 6.59 332.99 C6.59 334.21 5.6 335.18 4.39 335.18 L8.78 335.18"
						class="st4"/>
				<path d="M4.39 339.56 C6.81 339.56 8.78 337.6 8.78 335.18 L8.78 330.8" class="st4"/>
			</g>
			<g id="shape203-13" v:mID="203" v:groupContext="groupContent">
				<v:textBlock v:margins="rect(4,4,4,4)" v:tabSpace="42.5197"/>
				<v:textRect cx="40.5813" cy="303.276" width="81.17" height="72.5684"/>
				<text x="19.23" y="299.68" class="st5" v:langID="1045"><v:paragraph v:horizAlign="1"/><v:tabList/>Original<v:lf/><tspan
							x="15.77" dy="1.2em" class="st6">pod spec</tspan></text>			</g>
		</g>
		<g id="shape204-16" v:mID="204" v:groupContext="shape" transform="translate(9.14567,-146.891)">
			<title>Rectangle</title>
			<desc>API Server</desc>
			<v:userDefs>
				<v:ud v:nameU="visVersion" v:val="VT0(15):26"/>
			</v:userDefs>
			<v:textBlock v:margins="rect(4,4,4,4)" v:tabSpace="42.5197"/>
			<v:textRect cx="56.6929" cy="302.71" width="113.39" height="73.7008"/>
			<rect x="0" y="265.859" width="113.386" height="73.7008" class="st7"/>
			<text x="28.47" y="306.31" class="st5" v:langID="1045"><v:paragraph v:horizAlign="1"/><v:tabList/>API Server</text>		</g>
		<g id="group208-19" transform="translate(9.14567,1.13687E-013)" v:mID="208" v:groupContext="group">
			<title>Sheet.208</title>
			<g id="shape205-20" v:mID="205" v:groupContext="shape" transform="translate(-8.64567,-22.1662)">
				<title>Rectangle.205</title>
				<v:userDefs>
					<v:ud v:nameU="visVersion" v:val="VT0(15):26"/>
				</v:userDefs>
				<rect x="0" y="265.859" width="113.386" height="73.7008" class="st7"/>
			</g>
			<g id="shape206-22" v:mID="206" v:groupContext="shape" transform="translate(0,-10.8276)">
				<title>Rectangle.206</title>
				<v:userDefs>
					<v:ud v:nameU="visVersion" v:val="VT0(15):26"/>
				</v:userDefs>
				<rect x="0" y="265.859" width="113.386" height="73.7008" class="st7"/>
			</g>
			<g id="shape207-24" v:mID="207" v:groupContext="shape" transform="translate(10.063,-2.32367)">
				<title>Rectangle.207</title>
				<desc>Kubelet</desc>
				<v:userDefs>
					<v:ud v:nameU="visVersion" v:val="VT0(15):26"/>
				</v:userDefs>
				<v:textBlock v:margins="rect(4,4,4,4)" v:tabSpace="42.5197"/>
				<v:textRect cx="56.6929" cy="302.71" width="113.39" height="73.7008"/>
				<rect x="0" y="265.859" width="113.386" height="73.7008" class="st7"/>
				<text x="35.61" y="306.31" class="st5" v:langID="1045"><v:paragraph v:horizAlign="1"/><v:tabList/>Kubelet</text>			</g>
		</g>
		<g id="shape209-27" v:mID="209" v:groupContext="shape" transform="translate(210.264,-146.891)">
			<title>Rectangle.209</title>
			<desc>CMK Mutating Webhook</desc>
			<v:userDefs>
				<v:ud v:nameU="visVersion" v:val="VT0(15):26"/>
			</v:userDefs>
			<v:textBlock v:margins="rect(4,4,4,4)" v:tabSpace="42.5197"/>
			<v:textRect cx="56.6929" cy="302.71" width="113.39" height="73.7008"/>
			<rect x="0" y="265.859" width="113.386" height="73.7008" class="st7"/>
			<text x="44.12" y="299.11" class="st5" v:langID="1045"><v:paragraph v:horizAlign="1"/><v:tabList/>CMK<v:lf/><tspan
						x="4.82" dy="1.2em" class="st6">Mutating Webhook</tspan></text>		</g>
		<g id="shape210-31" v:mID="210" v:groupContext="shape" transform="translate(386.012,-64.6859)">
			<title>Rectangle.210</title>
			<v:userDefs>
				<v:ud v:nameU="visVersion" v:val="VT0(15):26"/>
			</v:userDefs>
			<rect x="0" y="101.45" width="243.78" height="238.11" class="st7"/>
		</g>
		<g id="group211-33" transform="translate(404.585,-200.749)" v:mID="211" v:groupContext="group">
			<title>Sheet.211</title>
			<desc>Original pod spec</desc>
			<g id="shape212-34" v:mID="212" v:groupContext="shape" transform="translate(5.27706,1.13687E-013)">
				<title>Sheet.212</title>
				<path d="M0 339.56 C2.92 339.56 5.28 337.2 5.28 334.29 L0 334.29 C1.46 334.29 2.65 333.12 2.65 331.66 C2.65 330.21
							 1.46 329.03 0 329.03 L5.28 329.03 L5.28 257.52 C5.28 254.62 7.65 252.25 10.56 252.25 L87.09 252.25 C90.01
							 252.25 92.37 254.62 92.37 257.52 C92.37 260.43 90.01 262.79 87.09 262.79 L81.82 262.79 L81.82 334.29
							 C81.82 337.2 79.46 339.56 76.54 339.56 L0 339.56 ZM15.84 257.52 C15.84 260.43 13.47 262.79 10.56 262.79
							 C9.1 262.79 7.92 261.61 7.92 260.16 C7.92 258.7 9.1 257.52 10.56 257.52 L15.84 257.52 Z" class="st1"/>
			</g>
			<g id="shape213-36" v:mID="213" v:groupContext="shape">
				<title>Sheet.213</title>
				<path d="M21.12 257.52 C21.12 260.43 18.75 262.79 15.84 262.79 C14.38 262.79 13.2 261.61 13.2 260.16 C13.2 258.7
							 14.38 257.52 15.84 257.52 L21.12 257.52 ZM10.56 334.29 C10.56 337.2 8.19 339.56 5.28 339.56 C2.37 339.56
							 0 337.2 0 334.29 C0 331.39 2.37 329.03 5.28 329.03 C6.74 329.03 7.92 330.21 7.92 331.66 C7.92 333.12
							 6.74 334.29 5.28 334.29 L10.56 334.29 Z" class="st2"/>
			</g>
			<g id="shape214-38" v:mID="214" v:groupContext="shape">
				<title>Sheet.214</title>
				<path d="M10.56 329.03 L10.56 257.52 C10.56 254.62 12.92 252.25 15.84 252.25 L92.37 252.25 C95.29 252.25 97.65 254.62
							 97.65 257.52 C97.65 260.43 95.29 262.79 92.37 262.79 L87.09 262.79 L87.09 334.29 C87.09 337.2 84.73
							 339.56 81.82 339.56 L5.28 339.56 C2.37 339.56 0 337.2 0 334.29 C-0 331.39 2.37 329.03 5.28 329.03 L10.56
							 329.03 Z" class="st3"/>
				<path d="M10.56 329.03 L10.56 257.52 C10.56 254.62 12.92 252.25 15.84 252.25 L92.37 252.25 C95.29 252.25 97.65 254.62
							 97.65 257.52 C97.65 260.43 95.29 262.79 92.37 262.79 L87.09 262.79 L87.09 334.29 C87.09 337.2 84.73
							 339.56 81.82 339.56 L5.28 339.56 C2.37 339.56 0 337.2 0 334.29 C-0 331.39 2.37 329.03 5.28 329.03 L10.56
							 329.03" class="st4"/>
				<path d="M15.84 252.25 C18.75 252.25 21.12 254.62 21.12 257.52 C21.12 260.43 18.75 262.79 15.84 262.79 C14.38 262.79
							 13.2 261.61 13.2 260.16 C13.2 258.7 14.38 257.52 15.84 257.52 L21.12 257.52" class="st4"/>
				<path d="M87.09 262.79 L15.84 262.79" class="st4"/>
				<path d="M5.28 329.03 C6.74 329.03 7.92 330.21 7.92 331.66 C7.92 333.12 6.74 334.29 5.28 334.29 L10.56 334.29"
						class="st4"/>
				<path d="M5.28 339.56 C8.19 339.56 10.56 337.2 10.56 334.29 L10.56 329.03" class="st4"/>
			</g>
			<g id="shape211-45" v:mID="211" v:groupContext="groupContent">
				<v:textBlock v:margins="rect(4,4,4,4)" v:tabSpace="42.5197"/>
				<v:textRect cx="48.8238" cy="295.906" width="97.65" height="87.3078"/>
				<text x="27.47" y="292.31" class="st5" v:langID="1045"><v:paragraph v:horizAlign="1"/><v:tabList/>Original<v:lf/><tspan
							x="24.01" dy="1.2em" class="st6">pod spec</tspan></text>			</g>
		</g>
		<g id="group215-48" transform="translate(518.605,-200.749)" v:mID="215" v:groupContext="group">
			<title>Sheet.215</title>
			<desc>mutations.yaml ConfigMap env: ... volumes: ... tolerations: ....</desc>
			<g id="shape216-49" v:mID="216" v:groupContext="shape" transform="translate(5.27706,1.13687E-013)">
				<title>Sheet.216</title>
				<path d="M0 339.56 C2.92 339.56 5.28 337.2 5.28 334.29 L0 334.29 C1.46 334.29 2.65 333.12 2.65 331.66 C2.65 330.21
							 1.46 329.03 0 329.03 L5.28 329.03 L5.28 257.52 C5.28 254.62 7.65 252.25 10.56 252.25 L87.09 252.25 C90.01
							 252.25 92.37 254.62 92.37 257.52 C92.37 260.43 90.01 262.79 87.09 262.79 L81.82 262.79 L81.82 334.29
							 C81.82 337.2 79.46 339.56 76.54 339.56 L0 339.56 ZM15.84 257.52 C15.84 260.43 13.47 262.79 10.56 262.79
							 C9.1 262.79 7.92 261.61 7.92 260.16 C7.92 258.7 9.1 257.52 10.56 257.52 L15.84 257.52 Z" class="st1"/>
			</g>
			<g id="shape217-51" v:mID="217" v:groupContext="shape">
				<title>Sheet.217</title>
				<path d="M21.12 257.52 C21.12 260.43 18.75 262.79 15.84 262.79 C14.38 262.79 13.2 261.61 13.2 260.16 C13.2 258.7
							 14.38 257.52 15.84 257.52 L21.12 257.52 ZM10.56 334.29 C10.56 337.2 8.19 339.56 5.28 339.56 C2.37 339.56
							 0 337.2 0 334.29 C0 331.39 2.37 329.03 5.28 329.03 C6.74 329.03 7.92 330.21 7.92 331.66 C7.92 333.12
							 6.74 334.29 5.28 334.29 L10.56 334.29 Z" class="st2"/>
			</g>
			<g id="shape218-53" v:mID="218" v:groupContext="shape">
				<title>Sheet.218</title>
				<path d="M10.56 329.03 L10.56 257.52 C10.56 254.62 12.92 252.25 15.84 252.25 L92.37 252.25 C95.29 252.25 97.65 254.62
							 97.65 257.52 C97.65 260.43 95.29 262.79 92.37 262.79 L87.09 262.79 L87.09 334.29 C87.09 337.2 84.73
							 339.56 81.82 339.56 L5.28 339.56 C2.37 339.56 0 337.2 0 334.29 C-0 331.39 2.37 329.03 5.28 329.03 L10.56
							 329.03 Z" class="st3"/>
				<path d="M10.56 329.03 L10.56 257.52 C10.56 254.62 12.92 252.25 15.84 252.25 L92.37 252.25 C95.29 252.25 97.65 254.62
							 97.65 257.52 C97.65 260.43 95.29 262.79 92.37 262.79 L87.09 262.79 L87.09 334.29 C87.09 337.2 84.73
							 339.56 81.82 339.56 L5.28 339.56 C2.37 339.56 0 337.2 0 334.29 C-0 331.39 2.37 329.03 5.28 329.03 L10.56
							 329.03" class="st4"/>
				<path d="M15.84 252.25 C18.75 252.25 21.12 254.62 21.12 257.52 C21.12 260.43 18.75 262.79 15.84 262.79 C14.38 262.79
							 13.2 261.61 13.2 260.16 C13.2 258.7 14.38 257.52 15.84 257.52 L21.12 257.52" class="st4"/>
				<path d="M87.09 262.79 L15.84 262.79" class="st4"/>
				<path d="M5.28 329.03 C6.74 329.03 7.92 330.21 7.92 331.66 C7.92 333.12 6.74 334.29 5.28 334.29 L10.56 334.29"
						class="st4"/>
				<path d="M5.28 339.56 C8.19 339.56 10.56 337.2 10.56 334.29 L10.56 329.03" class="st4"/>
			</g>
			<g id="shape215-60" v:mID="215" v:groupContext="groupContent">
				<v:textBlock v:margins="rect(4,4,4,4)" v:tabSpace="42.5197"/>
				<v:textRect cx="48.8238" cy="295.906" width="97.65" height="87.3078"/>
				<text x="17.47" y="277.01" class="st8" v:langID="1045"><v:paragraph v:horizAlign="1" v:bulletSize="0.166667"/><v:tabList/><v:lf/>mutations.yaml<v:newlineChar/><tspan
							x="26.78" dy="1.2em" class="st6">ConfigMap<v:newlineChar/><v:lf/></tspan><tspan x="40.58" dy="2.55em"
							class="st9">env</tspan><tspan class="st9">: ...<v:lf/></tspan><tspan x="33.97" dy="1.2em" class="st9">volumes</tspan><tspan
							class="st9">: ...<v:lf/></tspan><tspan x="30.83" dy="1.2em" class="st9">tolerations</tspan><tspan
							class="st9">: ...<v:lf/></tspan><tspan x="25.15" dy="1.2em" class="st9">volumeMounts</tspan><tspan
							class="st9">: ...<v:lf/></tspan><tspan x="46.87" dy="1.2em" class="st9">...</tspan></text>			</g>
		</g>
		<g id="group234-72" transform="translate(430.046,-82.5429)" v:mID="234" v:groupContext="group">
			<title>Sheet.234</title>
			<desc>AdmissionResponse: List of patches to be applied to the pod s...</desc>
			<g id="shape225-73" v:mID="225" v:groupContext="shape" transform="translate(3.8943,5.68434E-014)">
				<title>Sheet.225</title>
				<path d="M0 339.56 C2.15 339.56 3.89 337.82 3.89 335.68 L0 335.68 C1.07 335.68 1.94 334.81 1.94 333.74 C1.94 332.67
							 1.07 331.8 0 331.8 L3.89 331.8 L3.89 279.1 C3.89 276.96 5.63 275.21 7.78 275.21 L147.93 275.21 C150.08
							 275.21 151.82 276.96 151.82 279.1 C151.82 281.24 150.08 282.98 147.93 282.98 L144.04 282.98 L144.04
							 335.68 C144.04 337.82 142.3 339.56 140.15 339.56 L0 339.56 ZM11.67 279.1 C11.67 281.24 9.93 282.98 7.78
							 282.98 C6.7 282.98 5.83 282.11 5.83 281.04 C5.83 279.97 6.7 279.1 7.78 279.1 L11.67 279.1 Z"
						class="st1"/>
			</g>
			<g id="shape226-75" v:mID="226" v:groupContext="shape">
				<title>Sheet.226</title>
				<path d="M15.56 279.1 C15.56 281.24 13.82 282.98 11.68 282.98 C10.59 282.98 9.72 282.11 9.72 281.04 C9.72 279.97
							 10.59 279.1 11.68 279.1 L15.56 279.1 ZM7.78 335.68 C7.78 337.82 6.04 339.56 3.89 339.56 C1.75 339.56
							 -0 337.82 0 335.68 C-0 333.54 1.75 331.8 3.89 331.8 C4.97 331.8 5.84 332.67 5.84 333.74 C5.84 334.81
							 4.97 335.68 3.89 335.68 L7.78 335.68 Z" class="st2"/>
			</g>
			<g id="shape227-77" v:mID="227" v:groupContext="shape">
				<title>Sheet.227</title>
				<path d="M7.78 331.8 L7.78 279.1 C7.78 276.96 9.52 275.21 11.68 275.21 L151.83 275.21 C153.97 275.21 155.71 276.96
							 155.71 279.1 C155.71 281.24 153.97 282.98 151.83 282.98 L147.94 282.98 L147.94 335.68 C147.94 337.82
							 146.2 339.56 144.04 339.56 L3.89 339.56 C1.75 339.56 0 337.82 0 335.68 C-0 333.54 1.75 331.8 3.89 331.8
							 L7.78 331.8 Z" class="st3"/>
				<path d="M7.78 331.8 L7.78 279.1 C7.78 276.96 9.52 275.21 11.68 275.21 L151.83 275.21 C153.97 275.21 155.71 276.96
							 155.71 279.1 C155.71 281.24 153.97 282.98 151.83 282.98 L147.94 282.98 L147.94 335.68 C147.94 337.82
							 146.2 339.56 144.04 339.56 L3.89 339.56 C1.75 339.56 0 337.82 0 335.68 C-0 333.54 1.75 331.8 3.89 331.8
							 L7.78 331.8" class="st4"/>
				<path d="M11.68 275.21 C13.82 275.21 15.56 276.96 15.56 279.1 C15.56 281.24 13.82 282.98 11.68 282.98 C10.59 282.98
							 9.72 282.11 9.72 281.04 C9.72 279.97 10.59 279.1 11.68 279.1 L15.56 279.1" class="st4"/>
				<path d="M147.94 282.98 L11.68 282.98" class="st4"/>
				<path d="M3.89 331.8 C4.97 331.8 5.84 332.67 5.84 333.74 C5.84 334.81 4.97 335.68 3.89 335.68 L7.78 335.68"
						class="st4"/>
				<path d="M3.89 339.56 C6.04 339.56 7.78 337.82 7.78 335.68 L7.78 331.8" class="st4"/>
			</g>
			<g id="shape234-84" v:mID="234" v:groupContext="groupContent">
				<v:textBlock v:margins="rect(4,4,4,4)" v:tabSpace="42.5197"/>
				<v:textRect cx="77.856" cy="307.386" width="155.72" height="64.3477"/>
				<text x="21.71" y="296.59" class="st5" v:langID="1045"><v:paragraph v:horizAlign="1"/><v:tabList/>AdmissionResponse:<v:newlineChar/><tspan
							x="23.11" dy="1.2em" class="st6">List of patches to be<v:lf/></tspan><tspan x="12.5" dy="1.2em"
							class="st6">applied to the pod spec</tspan>.</text>			</g>
		</g>
		<g id="shape240-88" v:mID="240" v:groupContext="shape" transform="translate(502.771,-239.272)">
			<title>Cross</title>
			<v:userDefs>
				<v:ud v:nameU="ScaleFactor" v:val="VT0(1):26"/>
				<v:ud v:nameU="ControlX1" v:val="VT0(0):26"/>
				<v:ud v:nameU="ControlY1" v:val="VT0(0.66929133858268):24"/>
				<v:ud v:nameU="ControlX2" v:val="VT0(0.66929133858268):24"/>
				<v:ud v:nameU="ControlY2" v:val="VT0(0):26"/>
				<v:ud v:nameU="visVersion" v:val="VT0(15):26"/>
				<v:ud v:nameU="LockBars" v:prompt="" v:val="VT0(1):5"/>
				<v:ud v:nameU="ControlY1" v:prompt="" v:val="VT0(0.058267712519687):1"/>
				<v:ud v:nameU="ControlX2" v:prompt="" v:val="VT0(0.058267712519687):1"/>
			</v:userDefs>
			<path d="M0 335.36 L4.2 335.36 L4.2 339.56 L6.07 339.56 L6.07 335.36 L10.26 335.36 L10.26 333.49 L6.07 333.49 L6.07 329.3
						 L4.2 329.3 L4.2 333.49 L0 333.49 L0 335.36 Z" class="st10"/>
		</g>
		<g id="shape241-90" v:mID="241" v:groupContext="shape" transform="translate(837.397,157.093) rotate(90)">
			<title>Chevron</title>
			<v:userDefs>
				<v:ud v:nameU="visVersion" v:prompt="" v:val="VT0(15):26"/>
			</v:userDefs>
			<path d="M0 339.56 L10.06 339.56 L20.13 329.5 L10.06 319.43 L0 319.43 L10.06 329.5 L0 339.56 Z" class="st10"/>
		</g>
		<g id="shape242-92" v:mID="242" v:groupContext="shape" transform="translate(46.4517,274.874) rotate(-90)">
			<title>Trapezoid</title>
			<v:userDefs>
				<v:ud v:nameU="visVersion" v:prompt="" v:val="VT0(15):26"/>
			</v:userDefs>
			<path d="M0 339.56 L238.11 339.56 L155.91 277.2 L82.2 277.2 L0 339.56 Z" class="st7"/>
		</g>
		<g id="shape243-94" v:mID="243" v:groupContext="shape" v:layerMember="0" transform="translate(58.752,-266.512)">
			<title>Dynamic connector</title>
			<path d="M7.09 339.56 L7.09 375.67" class="st11"/>
		</g>
		<g id="shape244-100" v:mID="244" v:groupContext="shape" v:layerMember="0" transform="translate(58.752,-146.891)">
			<title>Dynamic connector.244</title>
			<path d="M7.09 339.56 L7.09 392.11" class="st11"/>
		</g>
		<g id="shape246-105" v:mID="246" v:groupContext="shape" transform="translate(122.531,-197.914)">
			<title>Sheet.246</title>
			<path d="M0 339.56 L77.92 339.56" class="st11"/>
		</g>
		<g id="shape247-110" v:mID="247" v:groupContext="shape" transform="translate(122.531,-169.568)">
			<title>Sheet.247</title>
			<path d="M9.45 339.56 L9.81 339.56 L87.73 339.56" class="st13"/>
		</g>
		<g id="shape255-116" v:mID="255" v:groupContext="shape" transform="translate(108.217,-282.67)">
			<title>2-D word balloon</title>
			<desc>1 Pod spec is submitted to the API server.</desc>
			<v:userDefs>
				<v:ud v:nameU="visVersion" v:val="VT0(15):26"/>
				<v:ud v:nameU="Scale" v:val="VT0(1):26"/>
				<v:ud v:nameU="AntiScale" v:val="VT0(1):26"/>
			</v:userDefs>
			<v:textBlock v:margins="rect(4,4,4,4)" v:tabSpace="42.5197"/>
			<v:textRect cx="56.6929" cy="319.434" width="113.39" height="40.2512"/>
			<path d="M0 314.4 L0 299.31 L42.52 299.31 L56.69 299.31 L70.87 299.31 L113.39 299.31 L113.39 314.4 L113.39 319.43 L113.39
						 324.47 L113.39 339.56 L70.87 339.56 L56.69 339.56 L42.52 339.56 L0 339.56 L0 324.47 L-10.57 319.43 L0 314.4
						 Z" class="st14"/>
			<text x="8.1" y="316.73" class="st15" v:langID="1045"><v:paragraph v:horizAlign="1" v:bulletSize="0.166667"/><v:tabList/>1<tspan
						class="st16"> </tspan><tspan class="st16">Pod spec is submitted </tspan><tspan x="22.07" dy="1.2em"
						class="st16">to the API server</tspan><tspan class="st16">.</tspan></text>		</g>
		<g id="shape257-123" v:mID="257" v:groupContext="shape" transform="translate(133.728,-225.978)">
			<title>2-D word balloon.257</title>
			<desc>2 API server sends AdmissionReview request to the webhook.</desc>
			<v:userDefs>
				<v:ud v:nameU="visVersion" v:val="VT0(15):26"/>
				<v:ud v:nameU="Scale" v:val="VT0(1):26"/>
				<v:ud v:nameU="AntiScale" v:val="VT0(1):26"/>
			</v:userDefs>
			<v:textBlock v:margins="rect(4,4,4,4)" v:tabSpace="42.5197"/>
			<v:textRect cx="56.6929" cy="319.434" width="113.39" height="40.2512"/>
			<path d="M0 314.4 L0 299.31 L42.52 299.31 L56.69 299.31 L70.87 299.31 L113.39 299.31 L113.39 314.4 L113.39 319.43 L113.39
						 324.47 L113.39 339.56 L70.87 339.56 L19.84 367.62 L42.52 339.56 L0 339.56 L0 324.47 L0 319.43 L0 314.4 Z"
					class="st14"/>
			<text x="19.25" y="311.33" class="st15" v:langID="1045"><v:paragraph v:horizAlign="1" v:bulletSize="0.166667"/><v:tabList/>2<tspan
						class="st16"> </tspan><tspan class="st16">API server sends </tspan><tspan x="4.45" dy="1.2em" class="st16">AdmissionReview request </tspan><tspan
						x="23.85" dy="1.2em" class="st16">to the webhook</tspan><tspan class="st16">.</tspan></text>		</g>
		<g id="shape259-131" v:mID="259" v:groupContext="shape" transform="translate(232.941,-31.2363)">
			<title>2-D word balloon.259</title>
			<desc>3 Webhook reads pod spec and mutations config and prepares se...</desc>
			<v:userDefs>
				<v:ud v:nameU="visVersion" v:val="VT0(15):26"/>
				<v:ud v:nameU="Scale" v:val="VT0(1):26"/>
				<v:ud v:nameU="AntiScale" v:val="VT0(1):26"/>
			</v:userDefs>
			<v:textBlock v:margins="rect(4,4,4,4)" v:tabSpace="42.5197"/>
			<v:textRect cx="56.6929" cy="302.71" width="113.39" height="73.7008"/>
			<path d="M0 293.5 L0 265.86 L42.52 265.86 L153.07 228.16 L70.87 265.86 L113.39 265.86 L113.39 293.5 L113.39 302.71 L113.39
						 311.92 L113.39 339.56 L70.87 339.56 L56.69 339.56 L42.52 339.56 L0 339.56 L0 311.92 L0 302.71 L0 293.5 Z"
					class="st14"/>
			<text x="11.63" y="278.41" class="st15" v:langID="1045"><v:paragraph v:horizAlign="1" v:bulletSize="0.166667"/><v:tabList/>3<tspan
						class="st16"> </tspan><tspan class="st16">Webhook reads pod </tspan><tspan x="16.83" dy="1.2em"
						class="st16">spec and mutations </tspan><tspan x="8.97" dy="1.2em" class="st16">config and prepares set </tspan><tspan
						x="7.53" dy="1.2em" class="st16">of patches to be applied </tspan><tspan x="12.56" dy="1.2em" class="st16">on top of original pod </tspan><tspan
						x="46.29" dy="1.2em" class="st16">spec</tspan><tspan class="st16">.</tspan></text>		</g>
		<g id="shape261-142" v:mID="261" v:groupContext="shape" transform="translate(136.563,-81.8353)">
			<title>2-D word balloon.261</title>
			<desc>4 API server applies patches and sends final pod spec to Kube...</desc>
			<v:userDefs>
				<v:ud v:nameU="visVersion" v:val="VT0(15):26"/>
				<v:ud v:nameU="Scale" v:val="VT0(1):26"/>
				<v:ud v:nameU="AntiScale" v:val="VT0(1):26"/>
			</v:userDefs>
			<v:textBlock v:margins="rect(4,4,4,4)" v:tabSpace="42.5197"/>
			<v:textRect cx="41.4012" cy="311.355" width="82.81" height="56.4098"/>
			<path d="M0 304.3 L0 283.15 L31.05 283.15 L41.4 283.15 L51.75 283.15 L82.8 283.15 L82.8 304.3 L82.8 311.36 L82.8 318.41
						 L82.8 339.56 L51.75 339.56 L41.4 339.56 L31.05 339.56 L0 339.56 L0 318.41 L-39.69 274.5 L0 304.3 Z"
					class="st14"/>
			<text x="17.05" y="292.46" class="st15" v:langID="1045"><v:paragraph v:horizAlign="1" v:bulletSize="0.166667"/><v:tabList/>4<tspan
						class="st16"> </tspan><tspan class="st16">API server </tspan><tspan x="9.68" dy="1.2em" class="st16">applies patches </tspan><tspan
						x="10.68" dy="1.2em" class="st16">and sends final </tspan><tspan x="17.47" dy="1.2em" class="st16">pod spec to </tspan><tspan
						x="24.61" dy="1.2em" class="st16">Kubelet</tspan><tspan class="st16">.</tspan></text>		</g>
	</g>
</svg>
