<svg xmlns="http://www.w3.org/2000/svg" xmlns:xlink="http://www.w3.org/1999/xlink" width="810px" height="710px" viewBox="0 0  810 710" preserveAspectRatio="xMidYMid meet" ><defs id="svgEditorDefs"><polygon id="svgEditorShapeDefs" fill="khaki" stroke="black" style="vector-effect: non-scaling-stroke; stroke-width: 1px;"/></defs><rect id="svgEditorBackground" x="0" y="0" width="810" height="710" style="fill: none; stroke: none;"/><rect x="15" y="18" stroke="black" id="e1_rectangle" style="stroke-width: 1px;" width="722" height="675" fill="lightblue" transform="matrix(0.991244 0 0 0.991244 0.938765 0.965034)" ry="0" rx="0"/><text fill="black" x="35" y="49" id="e42_texte" style="font-family: Arial; font-size: 20px;" transform="matrix(1.34225 0 0 1.34225 -0.816243 -1.84298)">kcm node</text><rect x="35" y="215" stroke="black" id="e58_rectangle" style="stroke-width: 1px;" width="290" height="280" fill="khaki" transform="matrix(1.34225 0 0 1.34225 -0.816243 -1.84298)" ry="0" rx="0"/><text fill="black" x="58" y="250" id="e98_texte" style="font-family: Arial; font-size: 20px;" transform="matrix(1.34225 0 0 1.34225 -0.816243 -1.84298)">container</text><text fill="black" x="366" y="294" id="e128_texte" style="font-family: &quot;Courier New&quot;; font-size: 20px;" dy="" transform="matrix(1.34225 0 0 1.34225 -0.816243 -1.84298)" dx="">/etc/kcm<tspan x="366" dy="1.25em" y=""/><tspan x="366" dy="1.25em" y=""></tspan><tspan x="366" dy="1.25em" y="">/opt/bin/kcm</tspan><tspan x="366" dy="1.25em" y=""></tspan><tspan x="366" dy="1.25em" y="">/proc</tspan></text><text fill="black" x="55" y="289" id="e183_texte" style="font-family: &quot;Courier New&quot;; font-size: 14px;" dy="" transform="matrix(1.34225 0 0 1.34225 -0.816243 -1.84298)" dx="">KCM_PROC_FS=/host/proc<tspan x="55" dy="1.25em">/opt/bin/kcm isolate</tspan><tspan x="55" dy="1.25em">--pool=controlplane</tspan><tspan x="55" dy="1.25em">my-program -- --arg=foo</tspan></text><path d="M-7.966031749570302,1.4369891772123182l-1.2302204981170703,-1.2632648306605176h0.9177204981170703a8,8,0,0,1,5.071438462621618,-4.9152155536581335a3.839236,3.839236,0,0,1,1.0308917709220928,0.5370836569672726a5.861794,5.861794,0,0,0,-5.352330233543711,4.331282221674652h0.8636576493976911Z" stroke="black" id="e202_shape" style="vector-effect: non-scaling-stroke; stroke-width: 1px;" fill="#FFFFFF" transform="matrix(-0.342381 -24.278 -28.6223 0.290415 339.704 358.542)"/><text fill="black" x="263" y="435" id="e323_texte" style="font-family: Arial; font-size: 20px; font-style: italic;" dy="" transform="matrix(1.34225 0 0 1.34225 -0.816243 -1.84298)" dx="">mount</text><text fill="black" x="120" y="412" id="e440_texte" style="font-family: &quot;Courier New&quot;; font-size: 14px;" dy="" transform="matrix(1.34225 0 0 1.34225 -0.816243 -1.84298)" dx="">/etc/kcm<tspan x="120" dy="1.25em" y="">/opt/bin/kcm</tspan><tspan x="120" dy="1.25em" y="">/host/proc</tspan></text><rect x="34" y="72" stroke="black" id="e547_rectangle" style="stroke-width: 1px;" width="284" height="49" fill="lightpink" transform="matrix(1.34225 0 0 1.34225 -0.816243 -1.84298)" ry="0" rx="0"/><text fill="black" x="51" y="103" id="e561_texte" style="font-family: Arial; font-size: 20px;" transform="matrix(1.34225 0 0 1.34225 -0.816243 -1.84298)">kubelet</text><rect x="35" y="137" stroke="black" id="e602_rectangle" style="stroke-width: 1px;" width="284" height="49" fill="lightpink" transform="matrix(1.34225 0 0 1.34225 -0.816243 -1.84298)" ry="0" rx="0"/><text fill="black" x="54" y="169" id="e615_texte" style="font-family: Arial; font-size: 20px;" transform="matrix(1.34225 0 0 1.34225 -0.816243 -1.84298)">dockerd</text></svg>